/* XPM */
static char * text1_xpm[] = {
"49 25 21 1",
" 	c #8C1C1C",
".	c #8B1C1C",
"+	c #8B1B1B",
"@	c #8C1B1B",
"#	c #995656",
"$	c #BDA0A0",
"%	c #C7AFAF",
"&	c #AD8181",
"*	c #9D6060",
"=	c #CEB9B9",
"-	c #C2A7A7",
";	c #C8B1B1",
">	c #C4AAAA",
",	c #D5C5C5",
"'	c #B59292",
")	c #CCB6B6",
"!	c #9B5A5A",
"~	c #C8AFAF",
"{	c #D2BFBF",
"]	c #8C1E1E",
"^	c #8C1D1D",
"  ..+++++++++++++++++++++@++++++++++++++++++++++.",
".+++###++++++++++++++++++++++++++++++++++++++++++",
"++++$$$%&++++++++++++++++++++++++++++++++++++++++",
"+++**+++&%&++++++++++++++++++++++++++++++$#++++++",
"+++**+++++&$$&&&&&&&&&&##++++++++++++++++%+++++++",
"+++&&++++++##&&&&&&&&&&$$%$&&##+++++++++#$+++++++",
"+++#$+++++++++++++++++++++#&&$$$&+++++++#$+++++++",
"++++%++++++++++++++++++++++++++#&%&+++++#$+++++++",
"++++%++$&+++++++++#$+++++++++++++#=+++++#$+++++++",
"++++$#+#&+++++++++#$%-+++++++++++#$++++++$#++++++",
"++++$#+++$#+++++++;-+-&++++++++++$#++++++&&++++++",
"++++&&++++$>&+++#-$+++&$++++++++#$+++++++&&++++++",
"++++&&+++++#&%%%$-+++++#$+++++++&&+++++++&&++++++",
"++++&&++++++++++++++++++#$++++++$#+++++++&&++++++",
"++++#$++++++++++++++++##&,-++++&&++++++++#$++++++",
"+++++%++++++++++$====%$$&-&++++&&++++++++#$++++++",
"++++#$++++++++++#''''%$&#++++++%++++++++++%++++++",
"++++#$++++++++++++++++#&$$&#++#$++++++++++%++++++",
"+++++%+++++++++++++++++++#&$%$-&++++++++++$#+++++",
"+++++)!++++++++++++++++++++++#-&+++++++++&>#+++++",
"+++++~{%$$&&++++++++++++++++++&###&&-&$$$&$++++++",
"++++++++##='$&&-&&&&&#+##&$$%%&$$$&&-&###++++++++",
"++++++++++++#&&-&&&&&$%$$&##+++++++++++++++++++++",
" ...+++++++++++++++++++++++++++++++++++++++++++++",
"]^^    ....++++++++++++++++++++++++++++++++++++++"};
