/* XPM */
static char *result[] = {
/* columns rows colors chars-per-pixel */
"182 70 2 1 ",
"  c white",
". c None",
/* pixels */
".....                                                                                                                                                                            .....",
"...                                                                                                                                                                                ...",
"..                                                                                                                                                                                  ..",
".                                                                                                                                                                                    .",
".                                                                                                                                                                                    .",
"      ..........................................................................................................................................................................      ",
"     ............................................................................................................................................................................     ",
"     ............................................................................................................................................................................     ",
"     ............................................................................................................................................................................     ",
"     ............................................................................................................................................................................     ",
"     ............................................................................................................................................................................     ",
"     ............................................................................................................................................................................     ",
"     ............................................................................................................................................................................     ",
"     ............................................................................................................................................................................     ",
"     ............................................................................................................................................................................     ",
"     ............................................................................................................................................................................     ",
"     ............................................................................................................................................................................     ",
"     ............................................................................................................................................................................     ",
"     ............................................................................................................................................................................     ",
"     ............................................................................................................................................................................     ",
"     ............................................................................................................................................................................     ",
"     ............................................................................................................................................................................     ",
"     ............................................................................................................................................................................     ",
"     ............................................................................................................................................................................     ",
"     .............................................  . ...................................... ....................  .  ...........................................................     ",
"     ................................     .......   .   ......    ......    ..               ...................        ......................     ..............................     ",
"     ..............................       ......         .....    ......    ..                .... ............          ....    ...........         ............................     ",
"     .............................        .....           ....     .....    .                 .       ........            ...    ..........           ...........................     ",
"     ............................         ....     ...     ...      ....    ..           ......        ......     ....    ...    ..........           ...........................     ",
"     ...........................     .........    .....     ..       ...    ........    .......         .....    ......    ..    .........    .....   ...........................     ",
"     ...........................    .........    .......    ..        ..    ........    .......   ..     ....   .......    ..    .........    ....    ...........................     ",
"     ..........................    ..........    ........    .         .    ........    .......   ...    ...    ........    .    .........   .....    ...........................     ",
"     ..........................    ..........    ........    .              ........    .......   ....   ...    ........    .    .........    .....  ............................     ",
"     ..........................    ..........   .........    .    .         ........    .......   ....   ...    .........   .    .........    ...................................     ",
"     ..........................    ..........   ..........   .    ..        ........    .......   ..     ...    .........   ..   ..........        ..............................     ",
"     ..........................    ..........   ..........   .    ...       ........    .......          ...    .........   ..   ..........          ............................     ",
"     ..........................    ..........   .........    .    ....      ........    .......         ....    .........   ..   ...........          ...........................     ",
"     ...........................   ..........    ........    .    .....     ........    .......       ......    ........    ..   ..............       ...........................     ",
"     ...........................    .........    ........    .    ......    ........    .......       ......     .......    ..   ..................   ...........................     ",
"     ...........................    ..........     ....     ..    ......    ........    .......        ......     .....    ...   ...........   ...    ...........................     ",
"     ............................    ....  ...              ..    ......    .........   .......          .....             ..            ..           ...........................     ",
"     ............................          ....            ....    ......    ........   .......    .      ....            ...            ...         ............................     ",
"     .............................          .....        ......    ......    ........   .......    ..      .....         ....            ....       .............................     ",
"     ..............................        ........    ........   .......   ...................   .....   .........   ........      ...........   ...............................     ",
"     ...................................................................................................  .......................................................................     ",
"     ............................................................................................................................................................................     ",
"     ............................................................................................................................................................................     ",
"     ............................................................................................................................................................................     ",
"     ............................................................................................................................................................................     ",
"     ............................................................................................................................................................................     ",
"     ............................................................................................................................................................................     ",
"     ............................................................................................................................................................................     ",
"     ............................................................................................................................................................................     ",
"     ............................................................................................................................................................................     ",
"     ............................................................................................................................................................................     ",
"     ............................................................................................................................................................................     ",
"     ............................................................................................................................................................................     ",
"     ............................................................................................................................................................................     ",
"     ............................................................................................................................................................................     ",
"     ............................................................................................................................................................................     ",
"     ............................................................................................................................................................................     ",
"     ............................................................................................................................................................................     ",
"     ............................................................................................................................................................................     ",
"     ............................................................................................................................................................................     ",
"      ..........................................................................................................................................................................      ",
".                                                                                                                                                                                    .",
".                                                                                                                                                                                    .",
"..                                                                                                                                                                                  ..",
"...                                                                                                                                                                                ...",
".....                                                                                                                                                                            ....."
};
