/* XPM */
static char *c51b7b2e14a045eda5fcd3a45af63d9fhGDtUnVXbHep6JTC[] = {
/* columns rows colors chars-per-pixel */
"20 20 70 1 ",
"  c #757376",
". c #7C7A7D",
"X c #807E81",
"o c #828083",
"O c #848285",
"+ c #868487",
"@ c #89878A",
"# c #8D8B8E",
"$ c #8F8D90",
"% c #908E91",
"& c #939194",
"* c #959396",
"= c #969497",
"- c #989699",
"; c #99979A",
": c #9A989B",
"> c #9B999C",
", c #9C9A9D",
"< c #9D9B9E",
"1 c #9E9C9F",
"2 c #9F9DA0",
"3 c #A09EA1",
"4 c #A19FA2",
"5 c #A2A0A3",
"6 c #A3A1A4",
"7 c #A4A2A5",
"8 c #A5A3A6",
"9 c #A6A4A7",
"0 c #A7A5A8",
"q c #A8A6A9",
"w c #A9A7AA",
"e c #AAA8AB",
"r c #ABA9AC",
"t c #ACAAAD",
"y c #ADABAE",
"u c #AEACAF",
"i c #AFADB0",
"p c #B0AEB1",
"a c #B1AFB2",
"s c #B2B0B3",
"d c #B3B1B4",
"f c #B4B2B5",
"g c #B5B3B6",
"h c #B6B4B7",
"j c #B7B5B8",
"k c #B8B6B9",
"l c #B9B7BA",
"z c #BAB8BB",
"x c #BBB9BC",
"c c #BCBABD",
"v c #BDBBBE",
"b c #BEBCBF",
"n c #BFBDC0",
"m c #C0BEC1",
"M c #C1BFC2",
"N c #C2C0C3",
"B c #C3C1C4",
"V c #C4C2C5",
"C c #C5C3C6",
"Z c #C6C4C7",
"A c #C7C5C8",
"S c #C8C6C9",
"D c #C9C7CA",
"F c #CAC8CB",
"G c #CBC9CC",
"H c #CCCACD",
"J c #CDCBCE",
"K c #CECCCF",
"L c #D1CFD2",
"P c #D2D0D3",
/* pixels */
"VSl8r1q3XvHbMltzjNvf",
"fzhjKVNi*xMznf0faMVN",
"KBznGazVtnMVLbqaaNVM",
"sASzZnNuqdeqd9%%sMVM",
"Lz33MzBb-8=oO+. vbjs",
":$$eKvnvtSSddbh898=#",
"aPZ-2tf%<bGvzVv0afaa",
"NMllHMVxaVZaqdf06tid",
"nBvzAlSvanvqhAvves0j",
"Bzt8hhNs6flejSMVlj8a",
"VMMujvjutvbufnlVVbev",
"jvLxdMvVfnvrfvfB1>&j",
"AZS9@$@-2881ra8fjfqS",
"iaasunvBnMVNGBtjfi<t",
"261xMSblVVVBVf<q26=0",
"lx0ABMxdvvMbMjqMNHMK",
"a88MMVjaZldbMatNMbvb",
"a88MMBfuuttlviaNNMMM",
"i88NMBdqilMVZxjNMnbb",
"a86NNNi9exVBBzit8666"
};
