/* XPM */
static char *_965ebc2ae3149ae92e6a3bd00be54f1WVikmAcb2WAZX3AK[] = {
/* columns rows colors chars-per-pixel */
"20 20 163 2 ",
"   c #69360B",
".  c #6A360E",
"X  c #6B370F",
"o  c #6B380D",
"O  c #69380F",
"+  c #6C390E",
"@  c #6D3A0F",
"#  c #733D0F",
"$  c #783C0A",
"%  c #7A3E0C",
"&  c #6A3910",
"*  c #6B3A11",
"=  c #6C3810",
"-  c #6E3B10",
";  c #6C3B12",
":  c #6D3C13",
">  c #6F3E15",
",  c #723D11",
"<  c #733D11",
"1  c #713E11",
"2  c #733F10",
"3  c #713C12",
"4  c #703D12",
"5  c #713E13",
"6  c #733E12",
"7  c #723F12",
"8  c #743E10",
"9  c #753F11",
"0  c #743F13",
"q  c #723F14",
"w  c #703F16",
"e  c #783F12",
"r  c #754112",
"t  c #764012",
"y  c #774113",
"u  c #734015",
"i  c #714017",
"p  c #754014",
"a  c #764115",
"s  c #774115",
"d  c #754217",
"f  c #774216",
"g  c #794112",
"h  c #7A4213",
"j  c #7E4210",
"k  c #7D4313",
"l  c #7A4114",
"z  c #784214",
"x  c #794315",
"c  c #7B4314",
"v  c #784216",
"b  c #784317",
"n  c #794317",
"m  c #7D4315",
"M  c #7A4416",
"N  c #7B4517",
"B  c #7C4415",
"V  c #7E4414",
"C  c #7F4515",
"Z  c #7D4516",
"A  c #7E4416",
"S  c #7F4517",
"D  c #7E4617",
"F  c #724118",
"G  c #734219",
"H  c #744018",
"J  c #764318",
"K  c #74431A",
"L  c #774419",
"P  c #75441B",
"I  c #76451C",
"U  c #77461D",
"Y  c #794418",
"T  c #7A4519",
"R  c #7B4519",
"E  c #78451A",
"W  c #79461B",
"Q  c #7B461A",
"!  c #7C4618",
"~  c #7D4719",
"^  c #7F4718",
"/  c #7F4619",
"(  c #7C461A",
")  c #7C471B",
"_  c #7A471C",
"`  c #78471E",
"'  c #7E481A",
"]  c #7F491B",
"[  c #7D481C",
"{  c #7E491D",
"}  c #7F491D",
"|  c #7F4A1E",
" . c #804412",
".. c #804616",
"X. c #814717",
"o. c #854716",
"O. c #864815",
"+. c #884A17",
"@. c #804618",
"#. c #814719",
"$. c #80471A",
"%. c #844718",
"&. c #804819",
"*. c #824818",
"=. c #834919",
"-. c #81491A",
";. c #81481B",
":. c #82481A",
">. c #824A1B",
",. c #854819",
"<. c #874918",
"1. c #854B19",
"2. c #864A18",
"3. c #854B1B",
"4. c #804A1C",
"5. c #814B1D",
"6. c #834B1C",
"7. c #834A1D",
"8. c #804B1F",
"9. c #814B1F",
"0. c #854B1D",
"q. c #834D1F",
"w. c #874D1D",
"e. c #854D1E",
"r. c #864C1E",
"t. c #864E1F",
"y. c #894B18",
"u. c #884A19",
"i. c #894B1A",
"p. c #8B4D1A",
"a. c #8C4E1B",
"s. c #884B1C",
"d. c #8A4E1C",
"f. c #8D4F1C",
"g. c #8D4F1E",
"h. c #8E501D",
"j. c #8F511E",
"k. c #8E501F",
"l. c #824D21",
"z. c #834E22",
"x. c #864D20",
"c. c #844E20",
"v. c #874F20",
"b. c #874E21",
"n. c #844E22",
"m. c #884E20",
"M. c #855024",
"N. c #875125",
"B. c #885021",
"V. c #895122",
"C. c #8A5223",
"Z. c #8D5321",
"A. c #8D5323",
"S. c #895325",
"D. c #8D5526",
"F. c #8E5627",
"G. c #895428",
"H. c #8E5528",
"J. c #915320",
"K. c #955724",
"L. c #91592A",
"P. c #92592C",
"I. c #935B2C",
/* pixels */
"U w * * 0 P E d E 7.n E ! n 7.E F P F > ",
"F : . * 1 0 w 3 n } d n E n 7.n W ` U F ",
"i = . * 1 w @   0 [ 0 n n n 8.E E J P w ",
"F : = . w 0 1 @ 1 E 0 n n n 8.! d w > = ",
"J : o @ 1 d 0 0 u ' t t t t 7._ P u 1 w ",
"J u o @ 1 d n d d } z N t t >.' t 1 1 1 ",
"E u @ @ 0 n n 1 ! n.' N n t 7.' z # 1 t ",
"_ d 1 i n E d # } S.' ' t t 7.&.' N N E ",
"d 0 # 0 N _ N N n S.#.n V Z &.n 8.X.&.w.",
"n.' d 0 d b t # n S...z V V &.n 1.&.&.w.",
"n.7.n d N N N N ..H.7.z Z ' s.&.,.X.,.s.",
"z.) n n E } ] ' &.P.n.X.' 7.s.,.,.&.,.s.",
"} ' E Z &.8.&.' &.I.V.&.X.X.1...s.i.u.,.",
"E d t Z 8.n.8.>.&.L.m.#...V ,.V j.s.i.O.",
"t t 0 t ! z.m.s.&.L.n...V V w.1.j.j.a.O.",
"8.Z t t N ' 7.&.8.I.w.V k &.A.Z.j.h.a.+.",
"G.' n 0 # n n # ^ A.F.w.! #...,.j.j.j.K.",
"M.N 0 0 0 V Z t Z V.V.' #...Z ,.s.+.a.J.",
"} d 1 0 t N &.N c w.>.c Z &..... .j V O.",
") 1 1 d N ' } t N >.X.z #.0...V j $ $  ."
};
