/* XPM */
static char * grass_xpm[] = {
"100 100 19 1",
" 	c #CE00CC",
".	c #FF00CC",
"+	c #BC61B9",
"@	c #72B56C",
"#	c #3DC930",
"$	c #4EC545",
"%	c #8BA487",
"&	c #25CE00",
"*	c #67BB60",
"=	c #999795",
"-	c #26CE04",
";	c #5EBF56",
">	c #56C24D",
",	c #54C34B",
"'	c #AB80A8",
")	c #40C933",
"!	c #3CCA2E",
"~	c #8EA18A",
"{	c #6DB867",
"        ............................................................................................",
"        ............................................................................................",
"        ............................................................................................",
"        ............................................................................................",
"        ............................................................................................",
"        ............................................................................................",
"        ............................................................................................",
"        ............................................................................................",
"        ............................................................................................",
"        ............................................................................................",
"        ............................................................................................",
"        ............................................................................................",
"        ............................................................................................",
"        ............................................................................................",
"        ............................................................................................",
"        ............................................................................................",
"        ............................................................................................",
"        ............................................................................................",
"        ............................................................................................",
"        ............................................................................................",
"        ............................................................................................",
"        ............................................................................................",
"        ............................................................................................",
"        ............................................................................................",
"        ............................................................................................",
"        ............................................................................................",
"        ............................................................................................",
"        ............................................................................................",
"        ............................................................................................",
"        ............................................................................................",
"        ............................................................................................",
"        ............................................................................................",
"        ............................................................................................",
"        ............................................................................................",
"        ............................................................................................",
"        ............................................................................................",
"        ............................................................................................",
"        ............................................................................................",
"        ............................................................................................",
"        ............................................................................................",
"        ............................................................................................",
"        ............................................................................................",
"        ............................................................................................",
"        ............................................................................................",
"        ............................................................................................",
"        ............................................................................................",
"        ............................................................................................",
"        ............................................................................................",
"        ............................................................................................",
"        ............................................................................................",
"        ............................................................................................",
"        ............................................................................................",
"        ............................................................................................",
"        ............................................................................................",
"        ............................................................................................",
"        ............................................................................................",
"        ............................................................................................",
"        ............................................................................................",
"        ............................................................................................",
"        ............................................................................................",
"        ............................................................................................",
"        ............................................................................................",
"        ............................................................................................",
"        ............................................................................................",
"        ............................................................................................",
"        ............................................................................................",
"        ............................................................................................",
"        ............................................................................................",
"        ............................................................................................",
"        ............................................................................................",
"        ............................................................................................",
"        ............................................................................................",
"        ............................................................................................",
"        ............................................................................................",
"        ............................................................................................",
"        ............................................................................................",
"        ............................................................................................",
"        ............................................................................................",
"        ............................................................................................",
" +      ............................................................................................",
"@#      ............................................................................................",
"$%      ............................................................................................",
"$%      ............................................................................................",
"&%     +............................................................................................",
"&%     *............................................................................................",
"&=    & ............................................................................................",
"&%   *+ ............................................................................................",
"&%  @@  ............................................................................................",
"&%  &   ............................................................................................",
"-%+*    ............................................................................................",
"&=&     ............................................................................................",
"$%=   = ............................................................................................",
"$;+ =&= ............................................................................................",
"#& =@   ............................................................................................",
">@@@    ............................................................................................",
",'*     ............................................................................................",
"&*+  =  ............................................................................................",
";*=*&=  ............................................................................................",
")!=+    ............................................................................................",
"~{      ............................................................................................"};
